HIERARCHY
ROOT root
{
	OFFSET 0.0 0.0 0.0
	CHANNELS 6 xposition yposition zposition zrotation yrotation xrotation
	JOINT lhip
	{
		OFFSET 1.57338 -1.94743 0.52196
		CHANNELS 3 zrotation yrotation xrotation
		JOINT lknee
		{
			OFFSET 2.60333 -7.15259 0.0
			CHANNELS 3 zrotation yrotation xrotation
			JOINT lankle
			{
				OFFSET 2.77855 -7.634 0.0
				CHANNELS 3 zrotation yrotation xrotation
				JOINT ltoe
				{
					OFFSET 0.19847 -0.54529 2.28466
					CHANNELS 3 zrotation yrotation xrotation
				}
			}
		}
	}
	JOINT rhip
	{
		OFFSET -1.61527 -1.94743 0.52196
		CHANNELS 3 zrotation yrotation xrotation
		JOINT rknee
		{
			OFFSET -2.53829 -6.9739 0.0
			CHANNELS 3 zrotation yrotation xrotation
			JOINT rankle
			{
				OFFSET -2.80762 -7.71387 0.0
				CHANNELS 3 zrotation yrotation xrotation
				JOINT rtoe
				{
					OFFSET -0.30536 -0.83898 2.28801
					CHANNELS 3 zrotation yrotation xrotation
				}
			}
		}
	}
	JOINT lowerback
	{
		OFFSET 0.0 0.0 0.0
		CHANNELS 3 zrotation yrotation xrotation
		JOINT upperback
		{
			OFFSET -0.04381 1.99497 -0.19778
			CHANNELS 3 zrotation yrotation xrotation
			JOINT chest
			{
				OFFSET -0.01959 2.01295 -0.04372
				CHANNELS 3 zrotation yrotation xrotation
				JOINT lowerneck
				{
					OFFSET 0.0 0.0 0.0
					CHANNELS 3 zrotation yrotation xrotation
					JOINT upperneck
					{
						OFFSET 0.09461 1.77368 -0.11172
						CHANNELS 3 zrotation yrotation xrotation
					}
				}
				JOINT lclavicle
				{
					OFFSET 0.0 0.0 0.0
					CHANNELS 3 zrotation yrotation xrotation
					JOINT lshoulder
					{
						OFFSET 3.50922 1.24034 -0.28866
						CHANNELS 3 zrotation xrotation yrotation
						JOINT lelbow
						{
							OFFSET 0.0 -5.40188 0.0
							CHANNELS 3 zrotation xrotation yrotation
							JOINT lwrist
							{
								OFFSET 0.0 -3.68559 0.0
								CHANNELS 3 zrotation xrotation yrotation
							}
						}
					}
				}
				JOINT rclavicle
				{
					OFFSET 0.0 0.0 0.0
					CHANNELS 3 zrotation yrotation xrotation
					JOINT rshoulder
					{
						OFFSET -2.95373 1.39649 -0.27346
						CHANNELS 3 zrotation xrotation yrotation
						JOINT relbow
						{
							OFFSET 0.0 -6.1067 -0.0
							CHANNELS 3 zrotation xrotation yrotation
							JOINT rwrist
							{
								OFFSET 0.0 -3.63052 0.0
								CHANNELS 3 zrotation xrotation yrotation
							}
						}
					}
				}
			}
		}
	}
}
MOTION
FRAMES: 11
FRAME TIME: 0.0083333
0.5909 3.640900000000004 18.265 -67.1541 -6.604000000000015 -8.8001 -4.8004000000000016 8.825599999999998 -14.8269 13.638100000000001 -5.229899999999997 41.8065 4.1971 -0.21119999999999906 -11.2596 -3.433 -0.28490000000000076 -9.4866 14.279200000000003 -17.678999999999995 -5.2769 -13.614800000000002 5.208499999999997 41.7157 -4.2247 1.6811999999999991 -26.3166 3.1942 0.24640000000000073 -8.82 2.679 0.9412000000000006 3.8492 3.4979999999999998 1.6545000000000007 1.478 1.7404999999999997 1.3177000000000005 -0.5907 7.2627999999999995 4.9982000000000015 -4.535 7.994500000000003 -11.626399999999999 21.9714 0.0 0.0 0.0 -19.902599999999993 -29.8438 -30.887400000000003 112.16330000000004 -35.4016 -155.77469999999997 -15.363499999999995 -12.1514 -26.790500000000005 0.0 0.0 0.0 47.8189 -34.5199 12.560700000000011 -101.49340000000002 -48.1234 139.90949999999998 -8.991100000000005 -19.432 26.025499999999997 
0.6082 3.622300000000004 18.2067 -67.4884 -7.1923000000000155 -9.4381 -4.762600000000002 9.134599999999999 -14.8211 13.764900000000003 -5.347599999999997 42.3037 4.0738 -0.26589999999999914 -12.1103 -3.8433 -0.35790000000000083 -10.6362 14.620500000000003 -17.372199999999996 -5.7348 -13.879500000000002 5.455899999999997 42.7568 -3.8435000000000006 1.7711999999999992 -26.7624 3.1218 0.2353000000000007 -8.618 2.7437999999999994 1.2140000000000006 4.0998 3.5661999999999994 1.678600000000001 1.4924 1.7730999999999997 1.2066000000000003 -0.7297 7.214899999999999 5.168900000000002 -4.8169 7.944900000000002 -11.747699999999998 21.9158 0.0 0.0 0.0 -19.908399999999993 -30.2202 -31.092500000000005 112.20590000000003 -35.3242 -155.84839999999997 -15.489299999999995 -11.3137 -27.837100000000003 0.0 0.0 0.0 47.0393 -34.7433 12.87580000000001 -102.16520000000003 -47.5792 140.81559999999996 -9.004900000000005 -19.6582 26.186699999999995 
0.6255 3.601500000000004 18.1479 -67.8399 -7.878600000000015 -10.1815 -4.6804000000000014 9.484599999999999 -14.7841 13.886900000000002 -5.462899999999998 42.7862 3.7986 -0.3369999999999992 -13.0318 -3.9234 -0.3731000000000009 -10.8613 14.935500000000003 -17.018599999999996 -6.177 -14.136500000000002 5.705299999999997 43.787 -3.3902000000000005 1.8612999999999993 -27.1712 2.9187 0.20550000000000063 -8.0524 2.8050999999999995 1.4372000000000007 4.3802 3.6279999999999997 1.7581000000000009 1.496 1.8027999999999997 1.1820000000000004 -0.8902 7.166399999999999 5.219000000000002 -5.0136 7.905400000000003 -11.767599999999998 21.7364 0.0 0.0 0.0 -20.056599999999992 -30.4316 -31.233000000000004 112.28820000000003 -35.174 -155.99079999999998 -15.519199999999993 -10.4185 -28.688700000000004 0.0 0.0 0.0 46.4104 -34.9274 12.926700000000011 -102.79920000000003 -47.0436 141.67819999999998 -8.598200000000006 -19.2663 25.990199999999998 
0.6443 3.577500000000004 18.0867 -68.2335 -8.136600000000016 -10.4801 -4.534900000000002 9.661499999999998 -14.8003 14.004600000000002 -5.5761999999999965 43.256 3.5695 -0.42329999999999923 -14.122 -4.089 -0.4057000000000009 -11.3273 15.192800000000004 -16.837399999999995 -6.7314 -14.384200000000002 5.954499999999997 44.799 -3.1961000000000004 1.9295999999999993 -27.5464 3.1014 0.23220000000000068 -8.5612 2.8763999999999994 1.4499000000000006 4.6092 3.7139999999999995 1.8034000000000008 1.4957 1.8452999999999997 1.2385000000000004 -1.0151 7.087999999999999 5.272300000000002 -5.1713 7.835500000000002 -11.767199999999999 21.4579 0.0 0.0 0.0 -20.339299999999994 -30.5591 -31.234400000000004 112.39070000000002 -34.9848 -156.16919999999996 -15.338499999999993 -9.5959 -29.240300000000005 0.0 0.0 0.0 45.6487 -35.0645 12.99410000000001 -103.45650000000003 -46.4646 142.58039999999997 -8.240700000000006 -18.8283 25.597299999999997 
0.6646 3.553200000000004 18.0229 -68.5995 -7.873800000000015 -10.2261 -4.424000000000002 9.622099999999998 -14.9065 14.110700000000001 -5.679799999999997 43.6826 3.4831 -0.5067999999999993 -15.1731 -4.4871 -0.489700000000001 -12.4514 15.403500000000003 -16.869499999999995 -7.3885 -14.625500000000002 6.206399999999997 45.8047 -3.2087000000000003 1.9943999999999993 -27.9848 3.4207 0.28290000000000076 -9.4522 2.9102999999999994 1.4166000000000007 4.8022 3.7568999999999995 1.6943000000000008 1.4711 1.8668999999999998 1.1596000000000004 -1.1526 7.003399999999999 5.3496000000000015 -5.2072 7.802700000000002 -11.589499999999997 21.0155 0.0 0.0 0.0 -21.050099999999993 -30.3997 -30.639800000000005 112.49150000000003 -34.7969 -156.34539999999998 -14.987399999999992 -8.223 -29.588700000000003 0.0 0.0 0.0 45.1034 -35.1502 13.13820000000001 -104.09440000000002 -45.8779 143.46459999999996 -8.210400000000005 -18.8474 25.683299999999996 
0.6854 3.527200000000004 17.956 -68.955 -8.086800000000016 -10.4971 -4.299900000000002 9.779199999999998 -14.903 14.205600000000002 -5.773899999999997 44.0675 3.3962 -0.5933999999999993 -16.1826 -5.1727 -0.6540000000000011 -14.4017 15.722000000000003 -16.734499999999997 -7.8876 -14.861300000000002 6.461699999999997 46.8078 -2.9553000000000003 2.0971999999999995 -28.5477 3.2314 0.2522000000000007 -8.9236 2.9407999999999994 1.5196000000000007 5.0878 3.7844999999999995 1.6378000000000008 1.476 1.8803999999999998 1.0624000000000005 -1.3169 6.948599999999999 5.507700000000002 -5.1466 7.8145000000000024 -11.491499999999998 20.403 0.0 0.0 0.0 -22.17279999999999 -29.982 -29.761300000000002 112.61300000000003 -34.5675 -156.55909999999997 -14.760799999999993 -6.251 -30.004200000000004 0.0 0.0 0.0 44.7807 -35.1813 13.290800000000011 -104.68960000000003 -45.307 144.29789999999997 -8.331200000000006 -19.1349 26.309199999999997 
0.7046 3.495200000000004 17.8883 -69.3732 -8.561900000000016 -11.1496 -4.103600000000003 10.047599999999997 -14.6989 14.294000000000002 -5.862699999999997 44.4283 3.3589 -0.6899999999999992 -17.2643 -6.2514 -0.9640000000000014 -17.5156 16.105300000000003 -16.525999999999996 -8.1539 -15.084300000000002 6.711799999999997 47.7756 -2.5732000000000004 2.1970999999999994 -29.0274 3.0806 0.2291000000000007 -8.5032 3.0000999999999998 1.5357000000000007 5.4148 3.8512999999999997 1.6836000000000009 1.5528 1.9124999999999999 1.1209000000000005 -1.4176 6.876399999999999 5.506400000000002 -5.2211 7.775800000000003 -11.378699999999998 19.9555 0.0 0.0 0.0 -22.988599999999995 -29.5657 -29.251000000000005 112.73740000000002 -34.3297 -156.77889999999996 -14.449499999999993 -4.9179 -30.260000000000005 0.0 0.0 0.0 44.5115 -35.1774 13.326700000000011 -105.25260000000003 -44.7452 145.09359999999998 -8.583700000000006 -19.474 27.108099999999997 
0.727 3.461800000000004 17.8217 -69.784 -8.741600000000016 -11.5723 -3.9115000000000024 10.206 -14.5006 14.385400000000002 -5.955799999999996 44.8042 3.1924 -0.8008999999999993 -18.3533 -6.4015 -1.0123000000000013 -17.9539 16.324500000000004 -16.426699999999997 -8.3918 -15.289200000000001 6.949499999999996 48.6832 -2.3889000000000005 2.2584999999999997 -29.3399 3.1861 0.2451000000000007 -8.7972 3.0723999999999996 1.4428000000000007 5.8287 3.9396999999999998 1.6985000000000008 1.6366 1.9550999999999998 1.2151000000000005 -1.5537 6.765499999999999 5.387500000000002 -5.4071 7.682000000000003 -11.155099999999997 19.6537 0.0 0.0 0.0 -23.640599999999992 -29.1399 -28.728900000000003 112.86810000000003 -34.0764 -157.01139999999998 -14.153699999999994 -4.1097 -30.247800000000005 0.0 0.0 0.0 44.1769 -35.1619 13.259000000000011 -105.82090000000002 -44.1549 145.90509999999998 -8.507300000000006 -19.6859 27.392799999999998 
0.7486 3.426200000000004 17.7587 -70.0922 -8.805700000000016 -11.8331 -3.779000000000002 10.3441 -14.4188 14.489000000000003 -6.062799999999997 45.2334 2.9804 -0.9134999999999993 -19.3654 -6.0676 -0.9066000000000013 -16.9806 16.443500000000004 -16.333899999999996 -8.652 -15.471800000000002 7.168099999999996 49.5072 -2.1996000000000007 2.3364999999999996 -29.7504 3.2042 0.24800000000000072 -8.8478 3.1254999999999997 1.3886000000000007 6.2204 4.0034 1.638400000000001 1.6763 1.9858999999999998 1.2106000000000003 -1.7307 6.686099999999999 5.415000000000002 -5.6032 7.627700000000003 -11.022199999999998 19.4404 0.0 0.0 0.0 -24.54319999999999 -28.5457 -27.931700000000006 113.05020000000003 -33.7172 -157.33789999999996 -13.956399999999993 -3.8317 -30.461900000000004 0.0 0.0 0.0 43.7368 -35.0071 13.329300000000009 -106.38440000000003 -43.5453 146.71849999999998 -8.239900000000006 -19.8394 27.142199999999995 
0.769 3.389700000000004 17.7012 -70.2949 -8.865500000000017 -12.0637 -3.7250000000000023 10.5022 -14.3734 14.605000000000002 -6.184699999999997 45.7185 3.411 -0.9841999999999992 -20.2655 -7.311 -1.3330000000000015 -20.6402 16.490300000000005 -16.192699999999995 -8.8923 -15.634200000000002 7.368199999999996 50.2534 -1.9425000000000003 2.4147999999999996 -30.1312 3.1679 0.24230000000000068 -8.7464 3.1011999999999995 1.4054000000000006 6.5754 3.9633999999999996 1.5008000000000008 1.7344 1.9651999999999998 1.0764000000000005 -1.8793 6.676099999999999 5.5363000000000016 -5.7998 7.695600000000002 -10.836399999999998 19.1757 0.0 0.0 0.0 -25.352099999999993 -27.7649 -26.922200000000007 113.22240000000002 -33.3708 -157.64959999999996 -13.556299999999993 -4.0777 -30.386600000000005 0.0 0.0 0.0 43.4293 -34.8309 13.479500000000009 -106.93100000000003 -42.9293 147.51649999999998 -8.204300000000005 -20.2613 26.969599999999996 
0.7917 3.355200000000004 17.6454 -70.5168 -8.881400000000015 -12.2154 -3.652500000000002 10.6117 -14.4145 14.725900000000001 -6.3139999999999965 46.2292 2.6244000000000005 -1.1267999999999994 -21.1555 -6.0904 -0.9136000000000013 -17.047 16.638700000000004 -16.051999999999996 -9.1461 -15.780600000000002 7.553299999999997 50.9371 -1.6492000000000004 2.4855999999999994 -30.4499 3.2226 0.25080000000000074 -8.8991 3.0592999999999995 1.3856000000000006 6.891 3.9028999999999994 1.3933000000000009 1.8059 1.9339999999999997 0.9883000000000004 -1.9876 6.686499999999999 5.530000000000002 -5.9163 7.795300000000003 -10.551699999999999 18.792 0.0 0.0 0.0 -26.022299999999994 -26.8544 -25.796100000000006 113.33180000000003 -33.1471 -157.84909999999996 -12.814199999999992 -4.2688 -29.624200000000002 0.0 0.0 0.0 43.2547 -34.6556 13.46990000000001 -107.45630000000003 -42.313 148.29219999999998 -8.217400000000005 -20.713 27.079799999999995 
